<svg xmlns="http://www.w3.org/2000/svg" viewBox="0 0 340 260" width="340" height="260" role="img" aria-label="Placeholder image slot 1">
<!-- PLACEHOLDER. Replace with a real cut-out PNG (transparent background, no frame). -->
<g>
  <path fill="#f4a0c0" d="M22 10c66 6 140 2 196 10 20 3 30 16 28 44-2 30 4 78-2 106-4 20-30 18-70 20-52 2-116 6-146-4-16-6-14-44-14-84s-6-84 8-92z"/>
  <g transform="translate(248 26) scale(0.5)">
    <path fill="#141210" d="M98 50 61.3 56.5 74 91.6 50 63 26 91.6 38.7 56.5 2 50 38.7 43.5 26 8.4 50 37 74 8.4 61.3 43.5Z"/>
  </g>
  <text x="24" y="226" font-family="Inter, sans-serif" font-size="10"
        font-weight="600" letter-spacing="2.2" fill="#141210">PLACEHOLDER 01</text>
</g>
</svg>
